<svg xmlns="http://www.w3.org/2000/svg" width="167" height="188" viewBox="0 0 167 188"><polygon points="23.9 59.5 23.9 59.5 23.9 164.2 143.1 164.2 143.1 164.2 23.9 164.2 23.9 59.5" style="fill:none"/><path d="M44.6,64.2a14.8,14.8,0,0,1,4.9-.5h0a14.8,14.8,0,0,0-4.9.5,9.5,9.5,0,0,0-6.5,9h0A9.5,9.5,0,0,1,44.6,64.2Z" style="fill:none"/><path d="M73.5,38a9.4,9.4,0,0,0-9.1,6.5,12.5,12.5,0,0,0-.5,3.1,12.5,12.5,0,0,1,.5-3.1,9.6,9.6,0,0,1,18.1,0,14.1,14.1,0,0,1,.5,4.8v0a14.1,14.1,0,0,0-.5-4.8A9.3,9.3,0,0,0,73.5,38Z" style="fill:none"/><path d="M166.9,10.3A12.2,12.2,0,0,0,156.7.1H53.6A18.6,18.6,0,0,0,42,5.8L5.8,41.9A18.4,18.4,0,0,0,.1,53.4c0,.8-.1,1.8-.1,2.9V174.8c0,1.5.1,2.3.1,2.9a12.2,12.2,0,0,0,10.2,10.2H156.7a12.2,12.2,0,0,0,10.2-10.2c0-.6.1-1.4.1-2.9V13.2C167,11.7,166.9,10.9,166.9,10.3ZM143.1,164.2H23.9V59.5h0A4.6,4.6,0,0,1,25.3,56L56.2,25.2a4.8,4.8,0,0,1,3.4-1.4h83.5Z" style="fill:#41c9b4"/><path d="M83,49.3a14.1,14.1,0,0,0-.5-4.8,9.6,9.6,0,0,0-18.1,0,12.5,12.5,0,0,0-.5,3.1V63.7H49.5a14.8,14.8,0,0,0-4.9.5,9.5,9.5,0,0,0-6.5,9,9.4,9.4,0,0,0,6.5,9,14.2,14.2,0,0,0,4.9.6H71.7a16.3,16.3,0,0,0,3.9-.3,10,10,0,0,0,7.2-7.1,12.3,12.3,0,0,0,.2-1.9V49.3Z" style="fill:#41c9b4"/><path d="M56.2,25.2,25.3,56a4.6,4.6,0,0,0-1.4,3.5h0V164.2H143.1V23.8H59.6A4.8,4.8,0,0,0,56.2,25.2ZM83,71.5v2a12.3,12.3,0,0,1-.2,1.9,10,10,0,0,1-7.2,7.1,16.3,16.3,0,0,1-3.9.3H49.5a14.2,14.2,0,0,1-4.9-.6,9.4,9.4,0,0,1-6.5-9h0a9.5,9.5,0,0,1,6.5-9,14.8,14.8,0,0,1,4.9-.5H63.9V47.6a12.5,12.5,0,0,1,.5-3.1,9.6,9.6,0,0,1,18.1,0,14.1,14.1,0,0,1,.5,4.8Z" style="fill:#fff"/></svg>
