<svg xmlns="http://www.w3.org/2000/svg" width="167" height="188" viewBox="0 0 167 188"><path d="M63.89,63.7V49.32a14,14,0,0,1,.54-4.84,9.55,9.55,0,0,1,18.06,0A14.24,14.24,0,0,1,83,49.32V71.49a18.35,18.35,0,0,1-.27,3.9,9.82,9.82,0,0,1-7.15,7.12,18.35,18.35,0,0,1-3.9.27H49.47a14.37,14.37,0,0,1-4.86-.54,9.5,9.5,0,0,1,0-18,14.43,14.43,0,0,1,4.86-.53Zm79.25,100.52H23.86V59.46A4.66,4.66,0,0,1,25.27,56L56.21,25.2a4.66,4.66,0,0,1,3.43-1.41h83.5ZM156.69.13a27.55,27.55,0,0,0-3-.13H56.47c-1.07,0-2.15.07-2.89.13A18.82,18.82,0,0,0,42,5.78L5.8,41.86A18.67,18.67,0,0,0,.14,53.42C.07,54.16,0,55.23,0,56.31V174.76a24.06,24.06,0,0,0,.14,3,12,12,0,0,0,10.17,10.14,24.39,24.39,0,0,0,3,.14H153.72a24.39,24.39,0,0,0,3-.14,12,12,0,0,0,10.18-10.14,27.16,27.16,0,0,0,.13-3V13.24a27.16,27.16,0,0,0-.13-3A12,12,0,0,0,156.69.13Z" fill="#fff" fill-rule="evenodd"/></svg>